<?xml version="1.0" encoding="UTF-8"?>
<!-- Created with Inkscape (http://www.inkscape.org/) -->
<svg width="938" height="1006" version="1.1" viewBox="0 0 938 1006" xmlns="http://www.w3.org/2000/svg">
 <path d="m477.98 1001.8c-266-729.84-133-364.92 0 0zm-407.97-15.841c0-12.495 0.19059-14.077 1.7499-14.528 0.96244-0.27807 6.9246-1.0107 13.249-1.6281 23.352-2.2797 48.003-7.1274 47.992-9.438 0-0.58426-4.5078-6.4621-10.011-13.062-33.622-40.317-61.966-100.73-75.393-160.69-6.4149-28.646-7.8439-47.627-4.6145-61.293 2.2885-9.6849 5.9643-17.119 8.7782-17.753 2.2321-0.50275 7.8318 2.2737 28.047 13.906 103.31 59.446 235.43 96.51 416.18 116.75 70.888 7.9383 122.44 9.9755 253.98 10.037 78.718 0.037 100.17-0.25959 128.49-1.7765 18.699-1.0015 38.723-1.6765 44.497-1.4999l10.499 0.32104 0.31717 3.3011c0.40039 4.1672-5.5463 28.396-10.352 42.178-9.7236 27.885-19.949 42.486-45.231 64.585-6.7477 5.898-12.102 10.891-11.898 11.095 0.38514 0.38508 41.451 4.2895 45.415 4.3179 2.229 0.016 2.2498 0.15039 2.2498 14.515v14.499h-18.516c-16.052 0-20.071-0.3362-30.201-2.5263-17.952-3.8814-30.986-8.6381-52.415-19.129l-19.637-9.613-8.3616 5.0237c-18.259 10.97-33.456 17.595-49.832 21.725-15.251 3.8458-25.584 4.8077-45.456 4.2308-29.164-0.8465-46.251-5.4808-78.606-21.319l-19.541-9.566-11.457 6.7354c-26.421 15.533-43.332 21.124-71.05 23.491-22.601 1.9305-48.593-0.5274-69.399-6.5626-15.584-4.5203-28.684-10.927-46.531-22.756-2.4599-1.6304-2.7078-1.5735-8.4995 1.9525-19.813 12.062-33.7 18.156-51.963 22.801-17.891 4.5513-31.011 5.9086-50.71 5.2466-18.614-0.6257-32.174-2.9539-47.324-8.1255-13.38-4.5673-18.735-7.0726-33.457-15.651-6.8746-4.0055-12.949-7.28-13.499-7.2764-0.54997 0-4.1498 1.9427-7.9995 4.309-17.836 10.963-39.39 19.681-59.587 24.099-8.286 1.813-14.436 2.3602-30.157 2.6836l-19.749 0.4062zm399.47-195.79c-1.6499-1.3631-11.834-9.1427-22.63-17.288-79.781-60.188-161.06-99.525-242.75-117.48-37.98-8.3472-59.983-10.689-106.22-11.307-20.692-0.2764-38.204-0.86277-38.916-1.303-0.89024-0.5502-1.7506-6.5345-2.7512-19.136-2.3788-29.957 0.35508-81.318 6.2984-118.33 13.928-86.732 41.093-158.84 84.009-222.99 57.844-86.462 140.84-151.49 248.46-194.68 15.838-6.3558 52.296-18.712 70.384-23.855 15.522-4.4128 21.611-5.0224 21.611-2.1637 0 0.98138-1.591 8.9684-3.5355 17.749-17.379 78.476-29.466 145.98-36.877 205.95-6.9066 55.89-7.5815 69.4-8.2665 165.49-0.55224 77.46 0.40766 134.22 2.7268 161.25 3.586 41.795 15.203 110.82 26.017 154.6 3.3114 13.404 5.8893 24.729 5.7285 25.167-0.16078 0.43756-1.6422-0.31969-3.2922-1.6828zm164.49-6.3837c-47.645-2.5449-94.026-10.504-109.48-18.787-3.3738-1.8081-5.5783-3.844-6.7454-6.2293-6.6569-13.606-21.898-115.19-27.974-186.44-1.7413-20.423-1.73-145.82 0.0163-180.49 1.6345-32.454 3.8288-62.899 5.7294-79.495 4.5109-39.388 19.178-119.99 21.834-119.99 1.0506 0 3.8279 7.3621 16.597 43.997 41.84 120.04 94.504 230.62 158.81 333.48 37.789 60.44 74.773 111.01 121.8 166.54 17.676 20.873 21.397 25.605 21.397 27.211 0 1.0318-3.1688 1.7602-26.998 6.2064-35.05 6.5398-65.443 11.006-88.494 13.003-16.935 1.4675-66.904 2.0437-86.495 0.99727zm-21.999-655.06c-13.258-0.77841-32.792-4.5341-46.619-8.9634-22.121-7.0861-29.376-12.22-29.376-20.787 0-1.6377 2.5042-12.797 5.565-24.798 3.8323-15.026 5.7347-24.623 6.1101-30.82 0.50847-8.3941 0.3023-9.7457-3.0651-20.094-4.6362-14.247-4.6507-16.071-0.14261-17.955 4.539-1.8965 19.304-1.8831 31.088 0.02815 23.492 3.8103 34.38 9.4507 73.938 38.303 36.231 26.426 53.934 34.506 87.211 39.806 8.9098 1.419 10.996 2.051 10.146 3.0742-2.6258 3.1639-27.348 18.711-36.861 23.181-30.293 14.233-64.965 20.965-97.994 19.026z" stroke-width=".99994"/>
 <g fill="#fff" stroke-width="1.831">
  <path d="m454.09 777.14c-16.929-13.457-50.191-36.291-72.85-50.01-54.26-32.852-108.67-55.782-165.78-69.859-37.626-9.2752-59.555-11.992-109.8-13.604-24.97-0.80109-45.981-2.0384-46.691-2.7496-0.7095-0.71119-1.222-23.264-1.1389-50.117 0.12566-40.606 0.83242-53.293 4.1991-75.374 16.326-107.08 51.216-191.51 109.64-265.33 16.93-21.392 54.403-59.076 75.517-75.943 53.23-42.522 114.03-74.67 187.68-99.24 38.841-12.957 50.353-15.568 50.353-11.419 0 1.4432-4.165 22.353-9.2557 46.467-15.352 72.722-25.305 132.26-33.114 198.09-3.3985 28.653-3.9611 45.787-4.7383 144.33-0.93528 118.58 0.29414 154.24 6.9605 201.93 4.4676 31.958 14.481 85.735 20.888 112.18 2.5332 10.456 4.6069 19.629 4.6082 20.385 5e-3 2.7525-3.0085 0.97232-16.477-9.734z"/>
  <path d="m604.24 780.76c-42.396-4.596-78.079-13.487-83.917-20.909-7.8184-9.9395-25.347-125.59-29.577-195.15-3.6348-59.766-1.4396-174.81 4.5389-237.86 4.4876-47.328 20.062-135 23.037-129.69 0.76627 1.3692 7.7205 20.192 15.454 41.828 70.041 195.96 154.08 345.95 277.51 495.26l24.217 29.296-20.875 4.0656c-61.697 12.016-79.952 13.906-138.98 14.389-30.715 0.25138-62.85-0.30217-71.41-1.2301z"/>
  <path d="m595.08 126.06c-28.359-5.5929-51.181-14.316-55.767-21.315-2.7924-4.2618-2.6483-5.9095 2.3766-27.176 8.1654-34.557 8.4047-37.902 3.868-54.07-3.7944-13.523-3.8226-14.214-0.67199-16.518 7.7518-5.6683 41.418-0.46163 61.05 9.4417 6.6178 3.3384 23.922 14.526 38.453 24.862 26.359 18.748 49.787 32.341 62.901 36.494 3.8093 1.2064 14.109 3.626 22.888 5.3771l15.962 3.1837-13.439 8.7514c-17.909 11.662-36.711 20.168-57.409 25.972-14.48 4.0604-21.442 4.8626-46.336 5.3387-16.113 0.30819-31.356 0.15409-33.874-0.34243z"/>
  <path d="m71.41 985.94c0-8.7242 0.73784-13.089 2.2888-13.54 1.2588-0.36593 12.176-1.9823 24.261-3.5919 24.252-3.2302 35.705-5.9319 35.705-8.4224 0-0.89998-4.9602-7.8022-11.023-15.338-32.904-40.902-60.59-100.48-74.296-159.88-6.7275-29.157-7.2051-55.998-1.227-68.952l4.0901-8.8629 16.051 8.6431c58.847 31.688 83.239 43.016 125.98 58.51 106.15 38.478 259.27 65.855 404.58 72.335 47.348 2.1116 247.26 2.2263 294.78 0.16917 18.118-0.7844 34.391-1.0472 36.163-0.58399 2.0453 0.53487 3.22 2.6017 3.2192 5.6639-2e-3 9.3288-9.4881 39.801-17.745 57.006-7.5164 15.662-10.354 19.365-28.476 37.166-11.07 10.874-19.796 20.103-19.391 20.508 0.40539 0.40537 10.185 1.6399 21.732 2.7434 11.547 1.1035 22.025 2.3543 23.283 2.7796 1.5455 0.52211 2.2888 5.0245 2.2888 13.864v13.091l-23.345-0.8655c-27.59-1.0229-42.366-5.1129-75.792-20.98l-21.319-10.12-11.122 6.5187c-14.654 8.5884-33.153 16.597-47.861 20.72-9.1667 2.5697-18.213 3.321-39.367 3.2699-33.085-0.08-44.374-2.777-79.864-19.08l-23.619-10.849-20.751 10.899c-29.775 15.639-42.921 18.796-78.093 18.755-40.2-0.0465-61.074-5.9239-96.423-27.15l-5.7877-3.4752-8.8604 5.0859c-28.838 16.553-53.876 24.552-82.101 26.231-34.408 2.0459-61.094-4.0547-94.03-21.496l-17.769-9.4096-17.341 9.1656c-30.023 15.868-54.15 22.305-83.715 22.332l-15.106 0.0138z"/>
 </g>
</svg>
