<?xml version="1.0" encoding="UTF-8"?>
<svg width="938" height="1006" version="1.1" viewBox="0 0 938 1006" xmlns="http://www.w3.org/2000/svg">
 <g transform="matrix(1.3844 0 0 1.3844 -151 -145.03)" fill="#1976d2" stroke-width=".93832">
  <path d="m430.83 666.57c-65.485-49.604-130.44-79.588-196.71-90.806-17.601-2.9793-31.473-4.0617-61.982-4.8364-21.343-0.54199-25.134-0.8509-25.608-2.087-1.3699-3.5698-2.4788-28.193-1.9088-42.382 3.3018-82.182 24.847-154.15 64.038-213.91 47.507-72.438 118.83-124.22 213.73-155.16 18.923-6.1702 31.074-9.4095 32.805-8.7453 1.0057 0.38594 0.71684 2.9604-1.4566 12.98-16.675 76.871-26.885 139.75-31.054 191.25-1.6979 20.973-1.6976 173.62 4.5e-4 192.36 3.1457 34.7 10.303 77.811 19.058 114.79 2.0569 8.6878 3.6109 16.116 3.4534 16.506-0.1575 0.39068-6.62-4.0873-14.361-9.951z"/>
  <path d="m561.73 672.2c-12.939-0.74153-36.311-3.446-47.854-5.5373-21.311-3.8612-31.7-7.6255-34.112-12.361-4.1063-8.0599-11.715-54.654-18.59-113.83-1.7759-15.288-2.0557-23.794-2.4208-73.585-0.65567-89.409 1.7763-125.8 12.405-185.59 4.6131-25.954 7.1821-36.811 8.2565-34.891 0.47065 0.841 4.8576 12.792 9.7488 26.558 33.953 95.556 69.25 169.82 116.82 245.78 27.341 43.659 50.024 74.641 88.683 121.13 7.9386 9.546 14.106 17.683 13.705 18.082-1.0928 1.0875-33.288 7.008-55.7 10.243-27.172 3.9219-64.109 5.5529-90.938 4.0154z"/>
  <path d="m542.22 197.07c-18.237-2.2781-39.802-8.9814-45.78-14.23-4.0843-3.586-4.1251-5.9303-0.371-21.304 4.0994-16.787 5.7681-27.195 5.0531-31.515-0.3417-2.0643-1.6262-7.1124-2.8544-11.218-2.0098-6.7182-2.0887-7.6092-0.78956-8.9083 2.1452-2.1452 14.34-2.4238 24.311-0.55539 16.111 3.019 22.101 6.0786 48.858 24.957 31.129 21.962 40.41 26.49 62.501 30.488 4.8461 0.87704 9.3423 1.8778 9.9916 2.224 1.6255 0.86657-11.727 9.5845-24.618 16.073-10.967 5.5202-25.813 10.298-38.96 12.538-10.582 1.8032-28.841 2.5125-37.341 1.4506z"/>
  <path d="m155.44 819.03v-9.8338l13.371-1.5795c19.29-2.2787 31.668-5.0231 31.668-7.0212 0-0.46427-3.0022-4.5916-6.6716-9.1718-26.135-32.622-46.382-76.334-55.594-120.02-5.4741-25.961-4.9347-41.488 1.799-51.782 1.6794-2.5676 1.175-2.7668 21.296 8.4095 68.357 37.969 140.52 60.788 242.32 76.627 55.325 8.608 98.397 12.58 154.68 14.263 33.337 0.99731 159.47 0.58741 203.06-0.6599 15.532-0.44446 18.999-0.31409 18.992 0.71401-0.02 2.9635-4.7984 22.019-7.536 30.053-6.4277 18.863-14.295 30.479-31.241 46.13-5.504 5.0833-10.007 9.5555-10.007 9.9382 0 0.38275 5.5947 1.1952 12.433 1.8055 6.838 0.61031 14.438 1.3502 16.89 1.6442l4.457 0.53462v19.718l-15.717-0.41531c-13.175-0.34817-17.176-0.81287-24.74-2.874-9.6281-2.6234-24.115-8.513-37.608-15.29l-8.2804-4.1587-11.015 6.131c-20.12 11.199-33.8 15.304-53.768 16.137-26.587 1.1086-43.254-3.0116-73.372-18.138l-8.3379-4.1875-7.2046 4.1454c-25.527 14.688-37.625 18.026-64.911 17.911-14.096-0.0594-19.167-0.45887-26.977-2.1254-16.27-3.4716-23.134-6.358-43.908-18.462l-2.8569-1.6646-10.28 5.7486c-20.728 11.591-36.237 16.027-58.603 16.759-25.608 0.83844-43.712-3.512-66.056-15.873l-12.103-6.6955-2.9103 1.7161c-14.306 8.4358-27.457 14.163-41.361 18.011-6.8613 1.8991-11.442 2.4426-24.182 2.8691l-15.717 0.52621z"/>
 </g>
 <text x="679.43512" y="929.15826" fill="#ffffff" font-family="sans-serif" font-size="45.475px" stroke-width="1.1369" style="line-height:1.25" xml:space="preserve"><tspan x="679.43512" y="929.15826" stroke-width="1.1369">Sofia</tspan></text>
</svg>
